<svg xmlns="http://www.w3.org/2000/svg" width="252.737" height="137.795" viewBox="0 0 252.737 137.795"><defs><style>.a{fill:#a0d1f2;}.b{fill:#45a5dd;}.c{fill:#18a7de;}.d{fill:#3a3451;}.e{fill:#93c352;}.f{fill:#6eaf32;}.g{fill:#8dc040;}.h{fill:#a7a9ad;}.i{fill:#d2d4d6;}</style></defs><g transform="translate(0)"><g transform="translate(74.928)"><path class="a" d="M147.142,55.438c-.163-.332,0-.658-.332-.99v-.658a2.612,2.612,0,0,0,0-2.225V44.485c.332-.5.163-.99.163-1.567,0-5.6,1.73-10.789,3.955-15.9A50.67,50.67,0,0,1,175.146,2.058c.658-.163,1.235-.658,2.062-.163.163.658-.332.99-.5,1.4a3.808,3.808,0,0,0,2.72,5.767c.5,0,.99,0,1.235.5a48.375,48.375,0,0,0-13.346,9.391,42.667,42.667,0,0,0-11.284,22.16,47.851,47.851,0,0,0-.332,12.77c-.5,0-.822-.332-1.235-.658-2.389-2.062-5.272-1.567-6.671,1.4C147.632,54.948,147.632,55.438,147.142,55.438Z" transform="translate(-146.81 -0.823)"/><path class="b" d="M177.208.99c.332-.332.99-.332,1.4-.99h3.21A5.136,5.136,0,0,1,184.7,4.45c0,2.062-1.4,3.624-3.787,4.282A4.314,4.314,0,0,1,176.3,6.181C175.146,4.282,175.81,2.552,177.208.99Zm38.554,7.742a4.285,4.285,0,0,1-3.787-3.379c-.5-2.389.658-4.119,2.884-5.272h2.884l1.567.908a4.466,4.466,0,0,1,1.567,5.272A4.169,4.169,0,0,1,215.762,8.733Zm-68.952,42.1a1.853,1.853,0,0,1,0,2.225Zm0-8.651h.332c0,.5.163,1.235-.332,1.567Z" transform="translate(-146.81)"/><path class="a" d="M238.6,9.761c2.062.163,3.787-.5,4.45-2.552a4.553,4.553,0,0,0-.822-5.109,45.166,45.166,0,0,1,11.943,7.334A51.055,51.055,0,0,1,269.909,32.5a47.93,47.93,0,0,1,2.552,18.287,24.656,24.656,0,0,1-.5,6.012c-.5-.332-.332-.822-.5-1.235a3.91,3.91,0,0,0-6.507-2.062c-.332.332-.658.822-1.235.822a47.786,47.786,0,0,0-.332-11.943,43.943,43.943,0,0,0-8.9-20.1A45.94,45.94,0,0,0,238.6,9.761Zm10.213,82.38a42.113,42.113,0,0,1-17.96,7.166c-9.059,1.567-17.96,1.235-26.606-1.894A43.632,43.632,0,0,1,193.46,92.14c.163-.5.658-.332.99-.5,2.72-.5,3.955-2.225,3.624-5.109,0-.5-.332-.99-.163-1.567a45.076,45.076,0,0,0,14,5.6A42.557,42.557,0,0,0,242.476,85.8c.5-.332.99-.5,1.567-.822.332.5,0,.822,0,1.4-.658,2.72.658,4.614,3.379,5.109C247.994,91.645,248.489,91.645,248.815,92.14Z" transform="translate(-169.651 -1.028)"/><path class="c" d="M226.293,139.7c-3.787-.163-5.6-1.73-5.435-4.777a8.872,8.872,0,0,1,.658-2.225,4.769,4.769,0,0,1,4.119-1.73,4.1,4.1,0,0,1,3.955,3.787,4.419,4.419,0,0,1-2.225,4.614A3.723,3.723,0,0,0,226.293,139.7ZM147.46,103.2c.99-3.047,2.389-4.119,5.109-3.955a5.172,5.172,0,0,1,3.379,2.225,7.062,7.062,0,0,1,.163,3.21,4.161,4.161,0,0,1-4.282,3.379,4.247,4.247,0,0,1-4.119-3.21A12.257,12.257,0,0,0,147.46,103.2Zm28.173,29.331c1.893,4.119,0,6.839-4.614,7.166a4.624,4.624,0,0,1-1.893-7.992C171.019,130.306,173.244,130.469,175.633,132.531Zm65.323-30.893a4.518,4.518,0,0,1,7.992.163,12.012,12.012,0,0,1,.332,2.389c-.5,2.884-2.72,4.45-5.436,3.787C241.369,107.487,240.134,104.767,240.956,101.638Z" transform="translate(-147.128 -48.585)"/></g><g transform="translate(0 113.038)"><path class="d" d="M18.4,228.443c-.24-3.981-2.725-6.436-6.762-6.645-2.965-.117-6.017-.061-8.978-.061A2.562,2.562,0,0,0,0,224.524v20.767c0,.449.061.628.51.567,1.317-.061,2.6,0,3.92,0,.449,0,.567-.117.567-.567V237.87c0-.51.061-.628.628-.628a64.759,64.759,0,0,0,6.824-.061,6.114,6.114,0,0,0,5.206-3.532A10.629,10.629,0,0,0,18.4,228.443Zm-8.227,4.4c-1.618.061-3.175,0-4.787,0-.357,0-.449-.117-.449-.449C5,231.409,5,230.419,5,229.342v-2.991c0-.357.117-.449.449-.449h4.578c2.363,0,3.532,1.225,3.471,3.593C13.438,231.674,12.331,232.782,10.177,232.843Z" transform="translate(0 -221.599)"/><path class="d" d="M69.957,240.616v-3.353a4.691,4.691,0,0,0-3.649-5.027,13.536,13.536,0,0,0-7.242-.24,5.435,5.435,0,0,0-4.282,4.282c-.117.51.061.567.51.567H58.7c.357,0,.806.061.985-.51a.787.787,0,0,1,.51-.449,5.34,5.34,0,0,1,4.282.061,1.282,1.282,0,0,1,.061,2.363,4.07,4.07,0,0,1-1.858.628,27.822,27.822,0,0,0-4.1.689c-2.363.689-4.042,1.975-4.4,4.578-.357,3.113.99,5.834,4.4,6.645a12.863,12.863,0,0,0,6.135-.3,6.524,6.524,0,0,0,5.15-5.895A36.567,36.567,0,0,0,69.957,240.616Zm-4.578,1.291a2.085,2.085,0,0,0,0,.628,4.424,4.424,0,0,1-1.225,3.649,4.253,4.253,0,0,1-3.981.929,1.9,1.9,0,0,1-1.378-1.735,2.21,2.21,0,0,1,.806-2.093,3.583,3.583,0,0,1,1.975-.806,23.472,23.472,0,0,0,3.353-.929C65.379,241.335,65.44,241.544,65.379,241.907Z" transform="translate(-26.504 -226.442)"/><path class="d" d="M143.491,236.983a6.809,6.809,0,0,0-5.088-5.027,11.424,11.424,0,0,0-5.507-.061,6.65,6.65,0,0,0-5.206,4.639,14.116,14.116,0,0,0-.75,4.91h0a16.567,16.567,0,0,0,.3,3.292c.689,3.052,2.246,5.267,5.384,6.073a14.326,14.326,0,0,0,4.221.24,7,7,0,0,0,6.645-5.328A15.47,15.47,0,0,0,143.491,236.983Zm-4.4,4.221a9.716,9.716,0,0,1-.51,3.353,3.233,3.233,0,0,1-3.052,2.363,3.079,3.079,0,0,1-3.231-2.246,9.421,9.421,0,0,1,.061-6.762,3.075,3.075,0,0,1,3.175-2.093,3.252,3.252,0,0,1,3.113,2.307,9.277,9.277,0,0,1,.444,3.078Z" transform="translate(-62.153 -226.429)"/><g transform="translate(180.8 5.155)"><path class="e" d="M387,257.76Z" transform="translate(-370.285 -244.398)"/><path class="e" d="M359.8,242.7h10.922c.567,0,.689-.179.689-.689a19.154,19.154,0,0,0-.357-4.1c-.689-3.175-2.424-5.384-5.716-6.073a11.593,11.593,0,0,0-3.833-.179,7.281,7.281,0,0,0-6.584,5.15,15.291,15.291,0,0,0,0,8.978,6.987,6.987,0,0,0,5.446,5.027,11.484,11.484,0,0,0,4.517.117,7.3,7.3,0,0,0,6.073-6.017,32.45,32.45,0,0,0-3.409.117,2.168,2.168,0,0,0-1.618.628,4.819,4.819,0,0,1-1.225.929c-1.8.929-4.578.628-5.267-2.363-.061-.3-.117-.567-.179-.868C359.114,242.813,359.262,242.7,359.8,242.7Zm1.914-7.064a3.237,3.237,0,0,1,4.221,2.307c.061.24.117.567.179.868.117.357,0,.51-.357.51-.985-.061-1.975-.061-3.052-.061h-3.113c-.179,0-.357.061-.357-.24A3.871,3.871,0,0,1,361.717,235.632Z" transform="translate(-354.25 -231.579)"/></g><path class="d" d="M216.417,243.975v6.2c0,.357-.061.566-.51.51-.75-.061-1.557.061-2.307-.061a2.005,2.005,0,0,1-1.975-2.036c-.061-1.618-.061-3.231-.061-4.91,0-1.557-.061-3.052,0-4.578.117-2.843-1.735-3.593-3.981-3.353a2.56,2.56,0,0,0-2.486,2.9V249.87c0,.566-.179.689-.689.689a32.815,32.815,0,0,0-3.471,0c-.567,0-.628-.179-.628-.689v-11.1a3.616,3.616,0,0,0-.449-1.858,2.982,2.982,0,0,0-2.9-1.317,4.063,4.063,0,0,0-1.169.179,2.363,2.363,0,0,0-1.858,2.184,5.35,5.35,0,0,0-.061.985v10.983c0,.51-.117.628-.628.628-1.225-.061-2.542,0-3.772,0-.3,0-.449-.061-.449-.449,0-3.772,0-7.63.061-11.4a7.793,7.793,0,0,1,2.093-5.359,7.094,7.094,0,0,1,3.92-1.8,11.744,11.744,0,0,1,6.017.51c.628.24,1.169.868,1.735.806.567,0,1.046-.628,1.674-.806a11.779,11.779,0,0,1,7.451-.061c2.664.868,3.92,2.843,4.282,5.507a52.16,52.16,0,0,1,.163,6.472Z" transform="translate(-92.549 -226.327)"/><path class="e" d="M283.569,245.854h-5.716a.749.749,0,0,1-.628-.357l-5.777-7.992a4.789,4.789,0,0,0-1.378-1.434,1.722,1.722,0,0,0-2.036-.24,1.807,1.807,0,0,0-1.046,1.8v7.691c0,.449-.117.566-.567.566H262.5c-.449,0-.51-.117-.51-.51v-21.1a2.477,2.477,0,0,1,2.424-2.542c.689-.061,1.317,0,1.975,0,.449,0,.567.117.567.566v9.309c.985-1.046,1.858-1.914,2.725-2.843,2.093-2.246,4.221-4.4,6.257-6.645a1.151,1.151,0,0,1,.868-.357h5.777c-.449.51-.806.868-1.169,1.225-2.664,2.725-5.328,5.446-8.049,8.171-.3.3-.3.449-.061.806,3.231,4.338,6.375,8.738,9.549,13.076A6.667,6.667,0,0,1,283.569,245.854Z" transform="translate(-128.277 -221.591)"/><path class="e" d="M465.132,244.5h1.975c.24,0,.449,0,.449.3a2.647,2.647,0,0,0,2.542,2.424,8.425,8.425,0,0,0,2.725-.061,3.078,3.078,0,0,0,.689-.24,1.3,1.3,0,0,0,.868-1.225c.061-.566-.3-.868-.75-1.169a7.693,7.693,0,0,0-3.113-1.046,19.965,19.965,0,0,1-4.1-1.108,4.955,4.955,0,0,1-3.292-4.7,5.072,5.072,0,0,1,3.175-5.088,10.556,10.556,0,0,1,8.916,0,5.611,5.611,0,0,1,3.353,4.91c0,.24,0,.357-.3.357-1.108-.061-2.246.061-3.292-.061a1.816,1.816,0,0,1-1.5-1.108,1.677,1.677,0,0,0-1.378-1.046,6.562,6.562,0,0,0-3.052,0,1.242,1.242,0,0,0-1.108,1.046,1.45,1.45,0,0,0,.806,1.378,10.214,10.214,0,0,0,3.593,1.108,18.511,18.511,0,0,1,4.16,1.378,4.672,4.672,0,0,1,2.664,5.267,5.226,5.226,0,0,1-3.981,4.639,13.733,13.733,0,0,1-8.5.117,5.625,5.625,0,0,1-4.1-5.446c0-.449.061-.628.51-.566h2.036V244.5Z" transform="translate(-226.495 -226.437)"/><path class="e" d="M319.074,244.355c0-1.858-.061-3.772,0-5.655a7.947,7.947,0,0,1,1.434-4.517,6.652,6.652,0,0,1,4.966-2.542,13.352,13.352,0,0,1,5.088.357c2.782.929,4.1,2.965,4.4,5.777.24,2.542.061,5.088.117,7.574v4.639c0,.566-.179.689-.628.628-.75-.061-1.557.061-2.307-.061a2.013,2.013,0,0,1-1.8-2.184v-9.4a7.8,7.8,0,0,0-.117-1.225c-.357-1.378-1.434-2.036-3.113-2.036-2.093,0-3.175,1.046-3.175,3.175v11.162c0,.51-.117.628-.628.628a35.153,35.153,0,0,0-3.593,0c-.51,0-.566-.117-.566-.628C319.074,248.188,319.074,246.274,319.074,244.355Z" transform="translate(-156.213 -226.41)"/><path class="e" d="M439.976,237.773h-2.184a.56.56,0,0,1-.567-.3,3.094,3.094,0,0,0-3.113-1.618,3.046,3.046,0,0,0-2.9,2.036,9.756,9.756,0,0,0-.061,6.885,3.517,3.517,0,0,0,5.777,1.169,3.331,3.331,0,0,1,2.725-1.046c.806.061,1.618,0,2.363,0,.357,0,.449.061.357.449a7.313,7.313,0,0,1-6.941,5.716,10.74,10.74,0,0,1-5.655-.985,7.044,7.044,0,0,1-3.532-4.787,15.065,15.065,0,0,1,0-7.992,7.267,7.267,0,0,1,6.824-5.568,11.842,11.842,0,0,1,4.91.449,6.647,6.647,0,0,1,4.4,5.206c.061.3-.061.357-.3.357-.541.031-1.291.031-2.1.031Z" transform="translate(-208.434 -226.469)"/><path class="d" d="M109.5,235.481V226.2c0-2.725,1.317-4.221,3.981-4.578a21.014,21.014,0,0,1,3.353,0c.3,0,.449.117.449.449v3.113c0,.357-.117.449-.449.449h-1.169a1.5,1.5,0,0,0-1.5,1.674c0,.868,0,.868.868.868H116.9c.117,0,.3-.061.357.179a2.793,2.793,0,0,1-1.618,3.175,2.269,2.269,0,0,1-.628.117c-.75.061-.75.061-.75.806v12.78c0,.449-.061.628-.567.567-1.225-.061-2.486,0-3.71,0-.449,0-.51-.117-.51-.51v-9.815h.031Z" transform="translate(-53.599 -221.517)"/><path class="d" d="M90.761,232.5V222.268c0-.51.117-.628.628-.628.628.061,1.317,0,1.914.061a2.339,2.339,0,0,1,2.246,2.424v2.486c0,.357.117.449.449.449h1.975c.3,0,.449.061.357.357-.061.449,0,.806-.061,1.225a2.211,2.211,0,0,1-2.246,1.8c-.357,0-.567.061-.51.51v9.784c0,.868.357,1.225,1.225,1.317h1.169c.3,0,.449.061.357.357v2.9c0,.24-.061.3-.3.357a22.336,22.336,0,0,1-4.849-.117,2.57,2.57,0,0,1-2.424-2.6V232.506h.071Z" transform="translate(-44.404 -221.558)"/><path class="e" d="M391.87,232.383V222.268c0-.51.117-.628.628-.628.689.061,1.317,0,1.975.061a2.284,2.284,0,0,1,2.184,2.307v2.6c0,.357.117.449.449.449h1.975c.179,0,.3-.061.357.179a2.541,2.541,0,0,1-1.735,3.113c-.117,0-.179.061-.3.061-.806.061-.806.061-.806.929v9.187c0,1.108.357,1.557,1.557,1.557,1.317,0,1.317,0,1.317,1.317v1.914c0,.3-.061.357-.357.449a20.858,20.858,0,0,1-4.7-.117c-1.674-.24-2.424-1.225-2.486-3.113l-.056-10.151Z" transform="translate(-191.869 -221.558)"/><path class="d" d="M40.46,233.83V222.305c0-.449.117-.628.567-.567.689.061,1.317,0,1.975.061a2.317,2.317,0,0,1,2.246,2.486v21.1c0,.449-.117.628-.567.566-1.225-.061-2.424,0-3.649,0-.449,0-.567-.117-.567-.566L40.46,233.83Z" transform="translate(-19.81 -221.601)"/><path class="d" d="M164.771,245.38c.061-1.557-.061-3.471.117-5.328a7.816,7.816,0,0,1,7.242-7.574,18.422,18.422,0,0,1,2.542-.117c.3,0,.449.061.449.357v4.1c0,.357-.117.449-.449.449a15.263,15.263,0,0,0-1.674,0c-2.246.24-3.353,1.5-3.409,3.772v9.549c0,.357-.061.567-.51.567H165.22c-.357,0-.51-.117-.51-.51C164.771,248.973,164.771,247.355,164.771,245.38Z" transform="translate(-80.646 -226.807)"/><path class="e" d="M411.92,241.542V232.8c0-.566.117-.689.689-.628.75.061,1.5,0,2.246,0a1.808,1.808,0,0,1,1.858,1.735,3.581,3.581,0,0,1,.061.806v15.561c0,.567-.179.75-.75.689a33.965,33.965,0,0,0-3.532,0c-.449,0-.567-.117-.567-.567v-8.86Z" transform="translate(-201.686 -226.71)"/><path class="e" d="M304.616,241.555v-8.8c0-.449.117-.567.566-.567.75.061,1.5,0,2.246,0a1.809,1.809,0,0,1,1.914,1.975v16.368c0,.357-.117.449-.51.449H305.06c-.449,0-.51-.117-.51-.51.066-2.96.066-5.92.066-8.916Z" transform="translate(-149.115 -226.724)"/><path class="e" d="M414.283,225.359h-1.914c-.3,0-.449-.061-.449-.449v-2.965c0-.3.117-.449.449-.449a19.352,19.352,0,0,1,2.664.061,1.79,1.79,0,0,1,1.674,1.618,15.286,15.286,0,0,1,.061,1.674c0,.3-.117.357-.449.357A9.269,9.269,0,0,1,414.283,225.359Z" transform="translate(-201.686 -221.48)"/><path class="e" d="M306.863,225.436h-1.914c-.3,0-.449-.061-.449-.449v-2.965c0-.3.117-.449.449-.357a19.352,19.352,0,0,1,2.664.061,1.848,1.848,0,0,1,1.674,1.674c.24,1.975.24,2.036-1.735,2.036Z" transform="translate(-149.091 -221.557)"/></g></g><path class="f" d="M304.65,88.909c2.062-2.552,3.787-3.21,6.012-1.893.822.5.99,1.4,1.567,1.893.822,3.624-1.893,5.767-4.94,5.109C305.308,93.523,304.481,91.956,304.65,88.909Z" transform="translate(-149.154 -42.281)"/><path class="f" d="M242.374,158.557c-.658-.658-1.567-1.235-1.894-2.225-.822-2.552.163-4.45,2.884-5.435a3.929,3.929,0,0,1,4.119,2.062,3.747,3.747,0,0,1-.332,4.119C245.752,158.721,244.267,159.216,242.374,158.557Z" transform="translate(-117.607 -73.871)"/><path class="g" d="M241.238,57.182C240.416,46.97,235.8,38.9,226.9,33.455c-17.71-10.381-40.611.5-43.663,20.844A29.106,29.106,0,0,0,211.33,87.662c0,.5-.5.5-.822.822-2.225,1.4-2.552,3.787-.822,5.6.332.332.822.5.658,1.235a35.163,35.163,0,0,1-21.829-8.156C171.959,73,170.392,48.286,185.8,32.715c10.213-10.381,23.064-13.673,37.069-9.228,13.841,4.282,22.16,14,25.289,28.173a20.533,20.533,0,0,1,.5,5.435c-.5,0-.658-.332-.822-.658a3.34,3.34,0,0,0-5.272-.332C242.059,56.606,241.9,57.346,241.238,57.182Z" transform="translate(-85.742 -10.554)"/><path class="h" d="M242.621,55.9c-2.72-1.73-3.21-3.787-1.893-6.012.5-.822,1.4-.99,1.893-1.567,3.624-.658,5.272,1.893,5.109,4.282C247.4,54.826,245.832,56.061,242.621,55.9Z" transform="translate(-117.523 -23.607)"/><path class="h" d="M285.861,91.435a4.139,4.139,0,0,1-7.661,0c0-3.047,1.235-4.777,3.379-5.109C283.88,86.081,286.437,87.648,285.861,91.435Z" transform="translate(-136.214 -42.255)"/><path class="i" d="M248.438,72.735a21.6,21.6,0,0,1-5.6,14,22.738,22.738,0,0,1-13.841,7.824,22.217,22.217,0,0,1-19.114-5.435,22.752,22.752,0,0,1-7.661-13.346c-1.4-7.334.5-13.841,5.272-19.609,3.787-4.614,8.9-7,14.663-7.992a7.348,7.348,0,0,1,1.893,0c0,.5-.332.658-.658.99-1.893,1.73-1.893,4.119,0,5.6.332.332.822.332.658.99a19.486,19.486,0,0,0-7.5,2.72,15.424,15.424,0,0,0-4.94,20.349,15.689,15.689,0,0,0,25.289,3.21,14.142,14.142,0,0,0,3.955-8.156,3.861,3.861,0,0,1,.332-1.235,1.023,1.023,0,0,1,.822.5c1.893,2.225,4.119,2.225,6.012-.163C247.943,73.066,247.943,72.735,248.438,72.735Z" transform="translate(-98.791 -23.555)"/></svg>