<svg xmlns="http://www.w3.org/2000/svg" width="269.06" height="32.438" viewBox="0 0 269.06 32.438"><defs><style>.a{fill:#9fd0f1;}.b{fill:#45a4dc;}.c{fill:#18a6dd;}.d{fill:#6eae32;}.e{fill:#8cbf40;}.f{fill:#a6a8ac;}.g{fill:#d1d3d5;}.h{fill:#fff;}.i{fill:#92c252;}</style></defs><g transform="translate(0 0.08)"><g transform="translate(0 -0.08)"><path class="a" d="M.108,18.54c-.054-.108,0-.215-.108-.323V18a.858.858,0,0,0,0-.726V14.959c.108-.161.054-.323.054-.511a12.965,12.965,0,0,1,1.294-5.2A16.558,16.558,0,0,1,9.269,1.084c.215-.054.4-.215.673-.054.054.215-.108.323-.161.457a1.245,1.245,0,0,0,.888,1.886c.161,0,.323,0,.4.161A15.741,15.741,0,0,0,6.708,6.608a13.953,13.953,0,0,0-3.691,7.248,15.6,15.6,0,0,0-.108,4.176c-.161,0-.269-.108-.4-.215a1.3,1.3,0,0,0-2.182.457C.269,18.379.269,18.54.108,18.54Z" transform="translate(0 -0.68)"/><path class="b" d="M9.942.243c.108-.108.323-.108.457-.323h1.052a1.678,1.678,0,0,1,.942,1.456,1.473,1.473,0,0,1-1.24,1.4,1.411,1.411,0,0,1-1.509-.834A1.342,1.342,0,0,1,9.942.243ZM22.55,2.775a1.4,1.4,0,0,1-1.24-1.106,1.5,1.5,0,0,1,.942-1.725h.942l.511.3a1.462,1.462,0,0,1,.511,1.725A1.35,1.35,0,0,1,22.55,2.775ZM0,16.542a.605.605,0,0,1,0,.726Zm0-2.83H.108c0,.161.054.4-.108.511Z" transform="translate(0 0.08)"/><path class="a" d="M43.7,3.725a1.254,1.254,0,0,0,1.456-.834A1.489,1.489,0,0,0,44.89,1.22a14.805,14.805,0,0,1,3.907,2.4,16.71,16.71,0,0,1,5.147,7.544,15.727,15.727,0,0,1,.834,5.981,8.1,8.1,0,0,1-.161,1.967c-.161-.108-.108-.269-.161-.4a1.278,1.278,0,0,0-2.128-.673c-.108.108-.215.269-.4.269a15.763,15.763,0,0,0-.108-3.907,14.4,14.4,0,0,0-2.909-6.573A15.011,15.011,0,0,0,43.7,3.725Zm3.342,26.941a13.762,13.762,0,0,1-5.874,2.344,16.767,16.767,0,0,1-8.7-.619,14.227,14.227,0,0,1-3.53-1.725c.054-.161.215-.108.323-.161a1.343,1.343,0,0,0,1.187-1.671c0-.161-.108-.323-.054-.511a14.726,14.726,0,0,0,4.579,1.832,13.923,13.923,0,0,0,10-1.563c.161-.108.323-.161.511-.269.108.161,0,.269,0,.457a1.259,1.259,0,0,0,1.106,1.671C46.776,30.5,46.937,30.5,47.045,30.666Z" transform="translate(-21.153 -0.87)"/><path class="c" d="M26.184,74.705c-1.24-.054-1.832-.565-1.778-1.563a2.87,2.87,0,0,1,.215-.726,1.558,1.558,0,0,1,1.348-.565,1.341,1.341,0,0,1,1.294,1.24,1.448,1.448,0,0,1-.726,1.509A1.127,1.127,0,0,0,26.184,74.705ZM.4,62.77c.323-1,.78-1.348,1.671-1.294a1.7,1.7,0,0,1,1.106.726,2.322,2.322,0,0,1,.054,1.052,1.362,1.362,0,0,1-1.4,1.106A1.389,1.389,0,0,1,.481,63.308,3.77,3.77,0,0,0,.4,62.77Zm9.215,9.592c.619,1.348,0,2.236-1.509,2.343a1.51,1.51,0,0,1-.619-2.613A1.588,1.588,0,0,1,9.615,72.362Zm21.363-10.1a1.476,1.476,0,0,1,2.613.054,3.889,3.889,0,0,1,.108.78,1.4,1.4,0,0,1-1.778,1.24C31.113,64.172,30.709,63.284,30.979,62.259Z" transform="translate(-0.292 -44.91)"/><path class="d" d="M97.912,54.318c.673-.834,1.24-1.052,1.967-.619.269.161.323.457.511.619a1.309,1.309,0,0,1-1.617,1.671C98.127,55.828,97.858,55.316,97.912,54.318Z" transform="translate(-71.563 -39.071)"/><path class="d" d="M58.649,96.023a2.029,2.029,0,0,1-.619-.726,1.306,1.306,0,0,1,.942-1.778,1.286,1.286,0,0,1,1.348.673,1.229,1.229,0,0,1-.108,1.348A1.306,1.306,0,0,1,58.649,96.023Z" transform="translate(-42.349 -68.329)"/><path class="e" d="M39.186,24.939A9.538,9.538,0,1,0,29.408,34.9c0,.161-.161.161-.269.269a1.124,1.124,0,0,0-.269,1.832c.108.108.269.161.215.4a11.511,11.511,0,0,1-7.141-2.666,12.089,12.089,0,0,1-.888-17.809,11.329,11.329,0,0,1,12.121-3.013,11.615,11.615,0,0,1,8.271,9.215,6.741,6.741,0,0,1,.161,1.778c-.161,0-.215-.108-.269-.215a1.093,1.093,0,0,0-1.725-.108C39.455,24.75,39.4,24.993,39.186,24.939Z" transform="translate(-12.837 -9.691)"/><path class="f" d="M58.674,32.345c-.888-.565-1.052-1.24-.619-1.967.161-.269.457-.323.619-.511a1.3,1.3,0,0,1,1.671,1.4C60.237,31.995,59.726,32.4,58.674,32.345Z" transform="translate(-42.267 -21.784)"/><path class="f" d="M84.015,55.13a1.353,1.353,0,0,1-2.5,0c0-1,.4-1.563,1.106-1.671A1.294,1.294,0,0,1,84.015,55.13Z" transform="translate(-59.579 -39.048)"/><path class="g" d="M49.363,37.814a7.051,7.051,0,0,1-1.832,4.579,7.436,7.436,0,0,1-4.526,2.559,7.262,7.262,0,0,1-6.25-1.778,7.652,7.652,0,0,1-.78-10.776,7.61,7.61,0,0,1,4.795-2.613,2.382,2.382,0,0,1,.619,0c0,.161-.108.215-.215.323a1.136,1.136,0,0,0,0,1.832c.108.108.269.108.215.323a6.385,6.385,0,0,0-2.451.888A5.045,5.045,0,0,0,37.32,39.8a5.131,5.131,0,0,0,8.271,1.052,4.631,4.631,0,0,0,1.294-2.666,1.293,1.293,0,0,1,.108-.4.335.335,0,0,1,.269.161,1.139,1.139,0,0,0,1.967-.054C49.2,37.924,49.2,37.814,49.363,37.814Z" transform="translate(-24.928 -21.732)"/></g><g transform="translate(40.394 4.943)"><path class="h" d="M166.782,25.068a5.972,5.972,0,0,0-6.118-6.011c-2.68-.108-5.443-.054-8.123-.054a2.317,2.317,0,0,0-2.411,2.518V40.313c0,.406.054.568.46.514,1.192-.054,2.357,0,3.546,0,.406,0,.514-.108.514-.514V33.6c0-.46.054-.568.568-.568a59.036,59.036,0,0,0,6.172-.054,5.534,5.534,0,0,0,4.711-3.194A9.626,9.626,0,0,0,166.782,25.068Zm-7.445,3.979c-1.461.054-2.871,0-4.332,0-.326,0-.406-.108-.406-.406.054-.893.054-1.787.054-2.761V23.174c0-.326.108-.406.406-.406H159.2c2.139,0,3.194,1.111,3.14,3.25A2.755,2.755,0,0,1,159.337,29.047Z" transform="translate(-150.13 -18.882)"/><path class="h" d="M257.352,44.109V41.074a4.245,4.245,0,0,0-3.3-4.55,12.238,12.238,0,0,0-6.552-.218,4.914,4.914,0,0,0-3.872,3.872c-.108.46.054.514.46.514h3.086c.326,0,.732.054.893-.46a.706.706,0,0,1,.46-.406,4.821,4.821,0,0,1,3.872.054,1.16,1.16,0,0,1,.054,2.139,3.631,3.631,0,0,1-1.679.568,25.431,25.431,0,0,0-3.71.622c-2.139.622-3.657,1.787-3.979,4.144-.326,2.817.893,5.279,3.979,6.011a11.638,11.638,0,0,0,5.551-.272,5.906,5.906,0,0,0,4.657-5.333A32.229,32.229,0,0,0,257.352,44.109Zm-4.144,1.162a1.945,1.945,0,0,0,0,.568,4.008,4.008,0,0,1-1.111,3.3,3.832,3.832,0,0,1-3.6.839,1.712,1.712,0,0,1-1.246-1.571,2,2,0,0,1,.732-1.894,3.3,3.3,0,0,1,1.787-.732,21.236,21.236,0,0,0,3.032-.839C253.209,44.757,253.262,44.945,253.209,45.271Z" transform="translate(-218.035 -31.288)"/><path class="h" d="M382.976,40.8a6.158,6.158,0,0,0-4.6-4.55,10.34,10.34,0,0,0-4.983-.054,6.02,6.02,0,0,0-4.711,4.2A12.726,12.726,0,0,0,368,44.828h0a14.93,14.93,0,0,0,.272,2.978c.622,2.761,2.031,4.765,4.873,5.5a12.941,12.941,0,0,0,3.818.218,6.332,6.332,0,0,0,6.011-4.819A14.02,14.02,0,0,0,382.976,40.8Zm-3.982,3.818a8.861,8.861,0,0,1-.46,3.032,2.925,2.925,0,0,1-2.761,2.139,2.789,2.789,0,0,1-2.925-2.031,8.508,8.508,0,0,1,.054-6.118,2.781,2.781,0,0,1,2.871-1.894,2.943,2.943,0,0,1,2.817,2.085,8.4,8.4,0,0,1,.4,2.787Z" transform="translate(-309.38 -31.252)"/><g transform="translate(163.581 4.656)"><path class="i" d="M814.32,80.83Z" transform="translate(-799.195 -68.739)"/><path class="i" d="M763.129,45.952h9.883c.514,0,.622-.161.622-.622a17.129,17.129,0,0,0-.326-3.71c-.622-2.871-2.193-4.873-5.171-5.5a10.515,10.515,0,0,0-3.466-.161,6.586,6.586,0,0,0-5.957,4.657,13.839,13.839,0,0,0,0,8.123,6.33,6.33,0,0,0,4.929,4.55,10.342,10.342,0,0,0,4.09.108,6.609,6.609,0,0,0,5.5-5.443,29.059,29.059,0,0,0-3.086.108,1.955,1.955,0,0,0-1.461.568,4.317,4.317,0,0,1-1.111.839,3.169,3.169,0,0,1-4.765-2.139c-.054-.272-.108-.514-.161-.786C762.508,46.06,762.642,45.952,763.129,45.952Zm1.733-6.39a2.929,2.929,0,0,1,3.818,2.085c.054.218.108.514.161.786.108.326,0,.46-.326.46-.893-.054-1.786-.054-2.76-.054h-2.817c-.161,0-.326.054-.326-.218A3.51,3.51,0,0,1,764.862,39.562Z" transform="translate(-758.104 -35.893)"/></g><path class="h" d="M499.377,46.963v5.6c0,.326-.054.514-.46.46-.678-.054-1.407.054-2.085-.054a1.812,1.812,0,0,1-1.787-1.84c-.054-1.461-.054-2.925-.054-4.439,0-1.407-.054-2.761,0-4.144.108-2.572-1.571-3.25-3.6-3.032a2.311,2.311,0,0,0-2.247,2.626V52.3c0,.514-.161.622-.622.622a30.556,30.556,0,0,0-3.14,0c-.514,0-.568-.161-.568-.622V42.252a3.274,3.274,0,0,0-.406-1.679,2.7,2.7,0,0,0-2.626-1.192,3.573,3.573,0,0,0-1.055.161,2.134,2.134,0,0,0-1.679,1.978,4.981,4.981,0,0,0-.054.893V52.35c0,.46-.108.568-.568.568-1.111-.054-2.3,0-3.412,0-.272,0-.406-.054-.406-.406,0-3.412,0-6.9.054-10.316a7.045,7.045,0,0,1,1.894-4.846,6.416,6.416,0,0,1,3.546-1.625,10.638,10.638,0,0,1,5.443.46c.568.218,1.055.786,1.571.732.514,0,.947-.568,1.518-.732a10.629,10.629,0,0,1,6.743-.054,5.516,5.516,0,0,1,3.872,4.983,50.887,50.887,0,0,1,.126,5.849Z" transform="translate(-387.306 -31.002)"/><path class="i" d="M619.3,40.8h-5.171a.677.677,0,0,1-.568-.326l-5.225-7.23a4.408,4.408,0,0,0-1.246-1.3,1.559,1.559,0,0,0-1.84-.218,1.64,1.64,0,0,0-.947,1.625v6.958c0,.406-.108.514-.514.514H600.24c-.406,0-.46-.108-.46-.46V21.275a2.24,2.24,0,0,1,2.193-2.3c.622-.054,1.192,0,1.787,0,.406,0,.514.108.514.514V27.91c.893-.947,1.679-1.733,2.465-2.572,1.894-2.031,3.818-3.979,5.658-6.011a1.039,1.039,0,0,1,.786-.326H618.4c-.406.46-.732.786-1.055,1.111-2.411,2.465-4.819,4.929-7.283,7.391-.272.272-.272.406-.054.732,2.925,3.926,5.766,7.9,8.637,11.833A5.309,5.309,0,0,1,619.3,40.8Z" transform="translate(-478.798 -18.854)"/><path class="i" d="M946.341,47.617h1.787c.218,0,.406,0,.406.272a2.392,2.392,0,0,0,2.3,2.193,7.581,7.581,0,0,0,2.465-.054,2.677,2.677,0,0,0,.622-.218,1.178,1.178,0,0,0,.786-1.111c.054-.514-.272-.786-.678-1.055a6.946,6.946,0,0,0-2.817-.947,18.031,18.031,0,0,1-3.71-1,4.484,4.484,0,0,1-2.978-4.251,4.591,4.591,0,0,1,2.871-4.6,9.551,9.551,0,0,1,8.069,0,5.069,5.069,0,0,1,3.032,4.439c0,.218,0,.326-.272.326-1-.054-2.031.054-2.978-.054a1.646,1.646,0,0,1-1.353-1,1.521,1.521,0,0,0-1.246-.947,5.909,5.909,0,0,0-2.761,0,1.121,1.121,0,0,0-1,.947,1.309,1.309,0,0,0,.732,1.246,9.241,9.241,0,0,0,3.25,1,16.7,16.7,0,0,1,3.764,1.246,4.233,4.233,0,0,1,2.411,4.765,4.732,4.732,0,0,1-3.6,4.2,12.432,12.432,0,0,1-7.69.108,5.1,5.1,0,0,1-3.71-4.929c0-.406.054-.568.46-.514h1.84Z" transform="translate(-730.432 -31.277)"/><path class="i" d="M697.715,47.421c0-1.679-.054-3.412,0-5.117a7.192,7.192,0,0,1,1.3-4.09,6.02,6.02,0,0,1,4.5-2.3,12.005,12.005,0,0,1,4.6.326,5.623,5.623,0,0,1,3.979,5.225c.218,2.3.054,4.6.108,6.85v4.2c0,.514-.161.622-.568.568-.678-.054-1.407.054-2.085-.054a1.823,1.823,0,0,1-1.625-1.978v-8.5a6.765,6.765,0,0,0-.108-1.111c-.326-1.246-1.3-1.84-2.817-1.84a2.541,2.541,0,0,0-2.871,2.871v10.1c0,.46-.108.568-.568.568-1.055-.054-2.193-.054-3.25,0-.46,0-.514-.108-.514-.568C697.715,50.889,697.715,49.156,697.715,47.421Z" transform="translate(-550.365 -31.191)"/><path class="i" d="M893.653,41.555h-1.978a.507.507,0,0,1-.514-.272,2.784,2.784,0,0,0-2.817-1.461,2.752,2.752,0,0,0-2.626,1.84,8.809,8.809,0,0,0-.054,6.229,3.179,3.179,0,0,0,5.225,1.055A3.017,3.017,0,0,1,893.355,48c.732.054,1.461,0,2.139,0,.326,0,.406.054.326.406a6.619,6.619,0,0,1-6.282,5.171,9.677,9.677,0,0,1-5.118-.893,6.363,6.363,0,0,1-3.194-4.332,13.651,13.651,0,0,1,0-7.23,6.572,6.572,0,0,1,6.172-5.037,10.649,10.649,0,0,1,4.439.406,6.018,6.018,0,0,1,3.979,4.711c.054.272-.054.326-.272.326-.484.027-1.162.027-1.891.027Z" transform="translate(-684.162 -31.336)"/><path class="h" d="M338.054,31.3V22.9a3.722,3.722,0,0,1,3.6-4.144,19.015,19.015,0,0,1,3.032,0c.272,0,.406.108.406.406v2.817c0,.326-.108.406-.406.406h-1.055a1.353,1.353,0,0,0-1.353,1.517c0,.786,0,.786.786.786h1.679c.108,0,.272-.054.326.161a2.524,2.524,0,0,1-1.461,2.871,2.115,2.115,0,0,1-.568.108c-.678.054-.678.054-.678.732V40.127c0,.406-.054.568-.514.514-1.111-.054-2.247,0-3.358,0-.406,0-.46-.108-.46-.46V31.3Z" transform="translate(-287.474 -18.67)"/><path class="h" d="M305.874,28.669V19.408c0-.46.108-.568.568-.568.568.054,1.192,0,1.733.054a2.116,2.116,0,0,1,2.031,2.193v2.247c0,.326.108.406.406.406H312.4c.272,0,.406.054.326.326-.054.406,0,.732-.054,1.111a2,2,0,0,1-2.031,1.625c-.326,0-.514.054-.46.46v8.855c0,.786.326,1.111,1.111,1.192h1.055c.272,0,.406.054.326.326V40.26c0,.218-.054.272-.272.326a19.935,19.935,0,0,1-4.386-.108,2.325,2.325,0,0,1-2.193-2.357V28.671h.054Z" transform="translate(-263.93 -18.773)"/><path class="i" d="M822.67,28.558V19.408c0-.46.108-.568.568-.568.622.054,1.192,0,1.787.054A2.064,2.064,0,0,1,827,20.979v2.357c0,.326.108.406.406.406h1.786c.161,0,.272-.054.326.161a2.3,2.3,0,0,1-1.571,2.817c-.108,0-.161.054-.272.054-.732.054-.732.054-.732.839v8.311c0,1,.326,1.407,1.407,1.407,1.192,0,1.192,0,1.192,1.192v1.733c0,.272-.054.326-.326.406a18.616,18.616,0,0,1-4.251-.108c-1.518-.218-2.193-1.111-2.247-2.817l-.051-9.18Z" transform="translate(-641.717 -18.773)"/><path class="h" d="M219.57,29.95V19.527c0-.406.108-.568.514-.514.622.054,1.192,0,1.787.054a2.1,2.1,0,0,1,2.031,2.247V40.4c0,.406-.108.568-.514.514-1.111-.054-2.193,0-3.3,0-.406,0-.514-.108-.514-.514V29.95Z" transform="translate(-200.887 -18.892)"/><path class="h" d="M432.866,49.037c.054-1.407-.054-3.14.108-4.819a7.071,7.071,0,0,1,6.552-6.85,16.484,16.484,0,0,1,2.3-.108c.272,0,.406.054.406.326V41.3c0,.326-.108.406-.406.406a14.274,14.274,0,0,0-1.517,0,3.118,3.118,0,0,0-3.086,3.412v8.637c0,.326-.054.514-.46.514H433.27c-.326,0-.46-.108-.46-.46C432.866,52.284,432.866,50.823,432.866,49.037Z" transform="translate(-356.753 -32.237)"/><path class="i" d="M857.09,45.391V37.484c0-.514.108-.622.622-.568.678.054,1.353,0,2.031,0a1.631,1.631,0,0,1,1.679,1.571,3.353,3.353,0,0,1,.054.732V53.3c0,.514-.161.678-.678.622a31.612,31.612,0,0,0-3.194,0c-.406,0-.514-.108-.514-.514Z" transform="translate(-666.876 -31.976)"/><path class="i" d="M672.884,45.425V37.464c0-.406.108-.514.514-.514.678.054,1.353,0,2.031,0a1.635,1.635,0,0,1,1.733,1.787V53.548c0,.326-.108.406-.46.406H673.29c-.406,0-.46-.108-.46-.46.054-2.68.054-5.362.054-8.069Z" transform="translate(-532.193 -32.01)"/><path class="i" d="M859.229,22.1H857.5c-.272,0-.406-.054-.406-.406V19.01c0-.272.108-.406.406-.406a18.033,18.033,0,0,1,2.411.054,1.626,1.626,0,0,1,1.518,1.461,14.271,14.271,0,0,1,.054,1.517c0,.272-.108.326-.406.326A8.657,8.657,0,0,1,859.229,22.1Z" transform="translate(-666.876 -18.59)"/><path class="i" d="M674.859,22.289h-1.733c-.272,0-.406-.054-.406-.406V19.2c0-.272.108-.406.406-.326a18.034,18.034,0,0,1,2.411.054,1.68,1.68,0,0,1,1.518,1.517c.218,1.787.218,1.84-1.571,1.84Z" transform="translate(-532.113 -18.783)"/></g></g></svg>